# xmcd CD database file
# Copyright (C) 1993-1996 Ti Kan
#
# Track frame offsets:
# 150
# 10027
# 20040
# 28995
# 40140
# 51070
# 62002
# 72997
# 84692
# 97085
# 107855
# 119117
# 129872
# 140215
# 149390
# 158750
# 169637
# 179522
# 192497
# 205060
# 217785
# 229527
# 241125
# 252292
# 262700
# 274205
# 286437
# 296905
# 309522
#
# Disc length: 4256 seconds
#
# Revision: 0
# Processed by: cddbd v1.4b41PL1 Copyright (c) Steve Scherf et al.
# Submitted via: inCDius 1.1b5
#
DISCID=b6109e1d
DTITLE=Porter Wagoner - TheThin Man From The West Plains - Disc 2
DYEAR=1900
DGENRE=
TTITLE0=Hey, Maw
TTITLE1=How Quick
TTITLE2=I Like Girls
TTITLE3=Itchin' For My Baby
TTITLE4=Eat,Drink And Be Merry
TTITLE5=I'm Stepping Out Tonight
TTITLE6=Let's Squiggle
TTITLE7=Living In The Past
TTITLE8=What Would You Do (If Jesus Came To Your House)
TTITLE9=How Can You Refuse Him Now
TTITLE10=Tryin' To Forget The Blues
TTITLE11=Uncle Pen
TTITLE12=How I've Tried
TTITLE13=I Like Girls
TTITLE14=Trying To Forget The Blues
TTITLE15=I've Known You From Somewhere
TTITLE16=Seeing Her Only Reminded Me Of You
TTITLE17=Midnight
TTITLE18=I Guess I'm Crazy
TTITLE19=Born To Lose
TTITLE20=Ivory Tower
TTITLE21=I Should Be With you
TTITLE22=Would You Be Satisfied
TTITLE23=I'm Day Dreamin' Tonight
TTITLE24=I'll Pretend
TTITLE25=Who Will He Be
TTITLE26=Good Mornin',Neighbor
TTITLE27=My Brand Of Blues
TTITLE28=Thinking Of You
EXTD=
EXTT0=
EXTT1=
EXTT2=
EXTT3=
EXTT4=
EXTT5=
EXTT6=
EXTT7=
EXTT8=
EXTT9=
EXTT10=
EXTT11=
EXTT12=
EXTT13=
EXTT14=
EXTT15=
EXTT16=
EXTT17=
EXTT18=
EXTT19=
EXTT20=
EXTT21=
EXTT22=
EXTT23=
EXTT24=
EXTT25=
EXTT26=
EXTT27=
EXTT28=
PLAYORDER=
